# xmcd
# Copyright (C) 1995-1998 Ti Kan
#
# Track frame offsets:
#       150
#       17025
#       37250
#       52162
#       77827
#
# Disc length: 1262 seconds
#
# Revision: 0
# Processed by: cddbd v1.4PL0 Copyright (c) Steve Scherf et al.
# Submitted via: CD-Transfer v1.0
#
DISCID=3f04ec05
DTITLE=Godlike - Personal Superstar
DYEAR=2002
DGENRE=
TTITLE0=Personal Superstar
TTITLE1=Morning Light
TTITLE2=She's Bright
TTITLE3=Supercilious
TTITLE4=I Dnt Nd Yr Love
EXTD=
EXTT0=
EXTT1=
EXTT2=
EXTT3=
EXTT4=
PLAYORDER=
